# File produced by Open Asset Import Library (http://www.assimp.sf.net)
# (assimp v3.1.206520482)

mtllib BarShelf.mtl

# 32 vertex positions
v 1 0.165762 5.77285
v 1 0.165762 -5.77285
v -1 0.165762 -5.77285
v -1 0.165762 5.77285
v -1 -0.165762 5.77285
v 1 -0.165762 5.77285
v -1 -0.165762 -5.77285
v 1 -0.165762 -5.77285
v -0.915557 -1.24092 -5.32815
v -0.915557 -1.24092 -5.00586
v 0.831097 -0.166558 -5.00586
v 0.831097 -0.166558 -5.32815
v -0.915422 -1.40982 -5.32815
v 1 -0.166558 -5.32815
v -0.915422 -1.40982 -5.00586
v 1 -0.166558 -5.00586
v -0.915557 -1.24092 -0.18275
v -0.915557 -1.24092 0.139545
v 0.831097 -0.166558 0.139545
v 0.831097 -0.166558 -0.18275
v -0.915422 -1.40982 -0.18275
v 1 -0.166558 -0.18275
v -0.915422 -1.40982 0.139545
v 1 -0.166558 0.139545
v -0.915557 -1.24092 5.32351
v -0.915422 -1.40982 5.32351
v 1 -0.166558 5.32351
v 0.831097 -0.166558 5.32351
v -0.915422 -1.40982 5.00121
v 1 -0.166558 5.00121
v -0.915557 -1.24092 5.00121
v 0.831097 -0.166558 5.00121

# 64 UV coordinates
vt 0.191025 0.027236 0
vt 0.191025 0.972764 0
vt 0.027236 0.972764 0
vt 0.027236 0.027236 0
vt 0.027236 8.6e-05 0
vt 0.191025 8.6e-05 0
vt 8.6e-05 0.972764 0
vt 8.6e-05 0.027236 0
vt 0.382136 8.6e-05 0
vt 0.382136 0.945613 0
vt 0.218347 0.945613 0
vt 0.218347 8.6e-05 0
vt 0.218175 0.027236 0
vt 0.218175 0.972764 0
vt 0.191025 0.999914 0
vt 0.027236 0.999914 0
vt 0.910131 0.338052 0
vt 0.999827 0.338052 0
vt 0.999827 0.908747 0
vt 0.910131 0.908747 0
vt 0.047179 0.039622 0
vt 0.07274 0.000173 0
vt 0.643266 0.01403 0
vt 0.682695 0.039622 0
vt 0.047179 0.129318 0
vt 0.682695 0.129318 0
vt 0.07274 0.168766 0
vt 0.643266 0.154911 0
vt 0.000173 0.129318 0
vt 0.000173 0.039622 0
vt 0.729701 0.039622 0
vt 0.729701 0.129318 0
vt 0.909785 0.908747 0
vt 0.82009 0.908747 0
vt 0.820089 0.338052 0
vt 0.909785 0.338052 0
vt 0.047179 0.208561 0
vt 0.07274 0.169113 0
vt 0.643266 0.182969 0
vt 0.682695 0.208562 0
vt 0.047179 0.298257 0
vt 0.682695 0.298257 0
vt 0.07274 0.337706 0
vt 0.643266 0.32385 0
vt 0.000173 0.298257 0
vt 0.000173 0.208561 0
vt 0.729701 0.208562 0
vt 0.729701 0.298258 0
vt 0.07274 0.506645 0
vt 0.047179 0.467197 0
vt 0.682695 0.467197 0
vt 0.643266 0.492789 0
vt 0.047179 0.377501 0
vt 0.682695 0.377501 0
vt 0.07274 0.338052 0
vt 0.643266 0.351909 0
vt 0.819743 0.908747 0
vt 0.730048 0.908747 0
vt 0.730047 0.338052 0
vt 0.819743 0.338052 0
vt 0.000173 0.467197 0
vt 0.000173 0.377501 0
vt 0.729701 0.377501 0
vt 0.729701 0.467197 0

# 9 vertex normals
vn 0 1 0
vn 0 0 1
vn -1 0 0
vn 0 -1 0
vn 1 0 0
vn 0 0 -1
vn -0.5239 0.8518 0
vn 0.5444 -0.8388 0
vn -1 -0.0008 0

# Mesh 'Shelf_Shelf' with 12 faces
g Shelf_Shelf
usemtl mat_Shelf
f 1/1/1 2/2/1 3/3/1
f 3/3/1 4/4/1 1/1/1
f 5/5/2 6/6/2 1/1/2
f 1/1/2 4/4/2 5/5/2
f 7/7/3 5/8/3 4/4/3
f 4/4/3 3/3/3 7/7/3
f 5/9/4 7/10/4 8/11/4
f 8/11/4 6/12/4 5/9/4
f 6/13/5 8/14/5 2/2/5
f 2/2/5 1/1/5 6/13/5
f 8/15/6 7/16/6 3/3/6
f 3/3/6 2/2/6 8/15/6

# Mesh 'Stands_Stands' with 36 faces
g Stands_Stands
usemtl mat_Stands
f 9/17/7 10/18/7 11/19/7
f 11/19/7 12/20/7 9/17/7
f 13/21/6 9/22/6 12/23/6
f 12/23/6 14/24/6 13/21/6
f 15/25/8 13/21/8 14/24/8
f 14/24/8 16/26/8 15/25/8
f 10/27/2 15/25/2 16/26/2
f 16/26/2 11/28/2 10/27/2
f 10/29/9 9/30/9 13/21/9
f 13/21/9 15/25/9 10/29/9
f 16/26/1 14/24/1 12/31/1
f 12/31/1 11/32/1 16/26/1
f 17/33/7 18/34/7 19/35/7
f 19/35/7 20/36/7 17/33/7
f 21/37/6 17/38/6 20/39/6
f 20/39/6 22/40/6 21/37/6
f 23/41/8 21/37/8 22/40/8
f 22/40/8 24/42/8 23/41/8
f 18/43/2 23/41/2 24/42/2
f 24/42/2 19/44/2 18/43/2
f 18/45/9 17/46/9 21/37/9
f 21/37/9 23/41/9 18/45/9
f 24/42/1 22/40/1 20/47/1
f 20/47/1 19/48/1 24/42/1
f 25/49/2 26/50/2 27/51/2
f 27/51/2 28/52/2 25/49/2
f 26/50/8 29/53/8 30/54/8
f 30/54/8 27/51/8 26/50/8
f 29/53/6 31/55/6 32/56/6
f 32/56/6 30/54/6 29/53/6
f 31/57/7 25/58/7 28/59/7
f 28/59/7 32/60/7 31/57/7
f 25/61/9 31/62/9 29/53/9
f 29/53/9 26/50/9 25/61/9
f 27/51/1 30/54/1 32/63/1
f 32/63/1 28/64/1 27/51/1

